<svg xmlns="http://www.w3.org/2000/svg" width="770" height="450" style="font-family: Arial, sans-serif;">
  <!-- Title -->
  <text x="350" y="25" font-size="20" font-weight="bold" text-anchor="middle">Model Training Pipeline</text>
  
  <!-- LC_TRAIN Container -->
  <rect x="20" y="40" width="740" height="400" fill="none" stroke="#000" stroke-width="2" stroke-dasharray="5,5" />
  <text x="35" y="60" font-size="16" font-weight="bold">LC_TRAIN Dataset</text>
  
  <!-- Model Definitions -->
  <rect x="40" y="80" width="200" height="140" fill="#e3f2fd" stroke="#000" />
  <text x="50" y="100" font-size="13" font-weight="bold" text-decoration="underline">Model Definitions</text>
  <text x="50" y="120" font-size="11">1. Ridge (alpha)</text>
  <text x="50" y="135" font-size="11">2. Lasso (alpha)</text>
  <text x="50" y="150" font-size="11">3. PenalizedSplines (knots, alpha)</text>
  <text x="50" y="165" font-size="11">4. KNN (n_neighbors)</text>
  <text x="50" y="180" font-size="11">5. PenalizedLogNormal (alpha, DUR)</text>
  <text x="50" y="195" font-size="11">6. PenalizedPoisson (alpha, OCC)</text>
  <text x="50" y="210" font-size="11">7. PenalizedWeibull (alpha, OCC)</text>
  
  <!-- Pipeline Definitions -->
  <rect x="290" y="80" width="200" height="135" fill="#e8f5e9" stroke="#000" />
  <text x="300" y="100" font-size="13" font-weight="bold" text-decoration="underline">Pipeline Steps</text>
  <text x="300" y="120" font-size="11">1. Scaler (Standard/Robust/MinMax)</text>
  <text x="300" y="135" font-size="11">2. Feature Engineering:</text>
  <text x="310" y="150" font-size="11">   - vanilla (base)</text>
  <text x="310" y="165" font-size="11">   - interact_select (interaction terms</text>
  <text x="340" y="178" font-size="11">   + KBestSelect(f_regression)</text>
  <text x="310" y="193" font-size="11">   - pca_lda (new features: pca + lda</text>
  <text x="340" y="206" font-size="11">    + KBestSelect(f_regression)</text>
  
  <!-- CV Methods -->
  <rect x="540" y="80" width="200" height="120" fill="#fff8e1" stroke="#000" />
  <text x="550" y="100" font-size="13" font-weight="bold" text-decoration="underline">Cross Validation</text>
  <text x="550" y="120" font-size="11">1. Split Strategy:</text>
  <text x="560" y="135" font-size="11">   - kfold (random)</text>
  <text x="560" y="150" font-size="11">   - rolling (time)</text>
  <text x="560" y="165" font-size="11">   - expanding (time)</text>
  <text x="550" y="180" font-size="11">2. Metric: RMSE/R²</text>
  
  <!-- Model Selection -->
  <rect x="290" y="240" width="200" height="80" fill="#ede7f6" stroke="#000" />
  <text x="300" y="260" font-size="13" font-weight="bold" text-decoration="underline">Model Selection</text>
  <text x="300" y="280" font-size="11">1. Average CV Performance</text>
  <text x="300" y="295" font-size="11">2. Standard Deviation</text>
  <text x="300" y="310" font-size="11">3. Best Parameters</text>
  
  <!-- Final Evaluation -->
  <rect x="290" y="360" width="200" height="70" fill="#ffcdd2" stroke="#000" />
  <text x="300" y="380" font-size="13" font-weight="bold" text-decoration="underline">Final Evaluation</text>
  <text x="300" y="400" font-size="11">1. Train Best Model</text>
  <text x="300" y="415" font-size="11">2. Evaluate on Holdout Set</text>
  
  <!-- Arrows -->
  <defs>
    <marker id="arrowhead" markerWidth="10" markerHeight="7" refX="9" refY="3.5" orient="auto">
      <polygon points="0 0, 10 3.5, 0 7" fill="#000" />
    </marker>
  </defs>
  
  <!-- Data Flow Arrows -->
  <line x1="240" y1="140" x2="290" y2="140" stroke="#000" marker-end="url(#arrowhead)" />
  <line x1="540" y1="140" x2="490" y2="140" stroke="#000" marker-end="url(#arrowhead)" />
  <line x1="390" y1="215" x2="390" y2="240" stroke="#000" marker-end="url(#arrowhead)" />
  <line x1="390" y1="320" x2="390" y2="360" stroke="#000" marker-end="url(#arrowhead)" />
</svg>