<svg xmlns="http://www.w3.org/2000/svg" width="800" height="400" viewBox="0 0 800 400">
  <!-- LC_TRAIN Section -->
  <rect x="50" y="20" width="700" height="40" fill="#d9ead3" stroke="#000" />
  <text x="400" y="45" text-anchor="middle" font-family="Arial" font-size="18">LC_TRAIN</text>

  <!-- Training Section -->
  <rect x="50" y="80" width="500" height="40" fill="#d9ead3" stroke="#000" />
  <text x="300" y="105" text-anchor="middle" font-family="Arial" font-size="16">Training</text>
  <text x="300" y="75" text-anchor="middle" font-family="Arial" font-size="14">80%</text>

  <!-- Holdout Section -->
  <rect x="600" y="80" width="150" height="40" fill="#ffd966" stroke="#000" />
  <text x="675" y="105" text-anchor="middle" font-family="Arial" font-size="16">Holdout</text>
  <text x="675" y="75" text-anchor="middle" font-family="Arial" font-size="14">20%</text>

  <!-- Thick Vertical Line -->
  <line x1="580" y1="70" x2="580" y2="300" stroke="#000" stroke-width="4" />

  <!-- K Fold CV Label -->
  <text x="200" y="150" text-anchor="middle" font-family="Arial" font-size="16">K-Fold CV per Model per Pipeline</text>

  <!-- Key (Legend) -->
  <g transform="translate(100, 140)">
    <rect x="0" y="20" width="15" height="15" fill="#d9ead3" stroke="#000" />
    <text x="25" y="32" font-family="Arial" font-size="12">Test</text>
    <rect x="70" y="20" width="15" height="15" fill="#fff2cc" stroke="#000" />
    <text x="95" y="32" font-family="Arial" font-size="12">Validation</text>
  </g>

  <!-- Fold Details -->
  <g transform="translate(50, 180)">
    <!-- Fold 1 -->
    <text x="0" y="15" font-family="Arial" font-size="14">Fold 1</text>
    <rect x="40" y="0" width="30" height="20" fill="#fff2cc" stroke="#000" />
    <rect x="70" y="0" width="150" height="20" fill="#d9ead3" stroke="#000" />
    <line x1="230" y1="10" x2="250" y2="10" stroke="#000" marker-end="url(#arrow)" />
    <text x="260" y="15" font-family="Arial" font-size="12">Evaluation Metric</text>

    <!-- Fold 2 -->
    <text x="0" y="45" font-family="Arial" font-size="14">Fold 2</text>
    <rect x="40" y="30" width="30" height="20" fill="#d9ead3" stroke="#000" />
    <rect x="70" y="30" width="30" height="20" fill="#fff2cc" stroke="#000" />
    <rect x="100" y="30" width="120" height="20" fill="#d9ead3" stroke="#000" />
    <line x1="230" y1="40" x2="250" y2="40" stroke="#000" marker-end="url(#arrow)" />
    <text x="260" y="45" font-family="Arial" font-size="12">Evaluation Metric</text>

    <!-- Vertical Ellipsis -->
    <text x="80" y="70" font-family="Arial" font-size="18" fill="#000">⋮</text>

    <!-- Fold K -->
    <text x="0" y="95" font-family="Arial" font-size="14">Fold K</text>
    <rect x="40" y="80" width="150" height="20" fill="#d9ead3" stroke="#000" />
    <rect x="190" y="80" width="30" height="20" fill="#fff2cc" stroke="#000" />
    <line x1="230" y1="90" x2="250" y2="90" stroke="#000" marker-end="url(#arrow)" />
    <text x="260" y="95" font-family="Arial" font-size="12">Evaluation Metric</text>
  </g>

  <!-- Aggregate Metrics -->
  <g transform="translate(405, 185)">
    <!-- Curly Bracket -->
    <path d="M0,0 15,45 0,90" fill="none" stroke="#000" stroke-width="2" />

    <!-- Metric Details -->
    <rect x="20" y="30" width="140" height="30" fill="#f0f0f0" stroke="#000" />
    <text x="90" y="43" text-anchor="middle" font-family="Arial" font-size="11">Average Evaluation Metric</text>
    <text x="90" y="55" text-anchor="middle" font-family="Arial" font-size="11">and Standard Deviation</text>

    <!-- Arrow to Best Model Box -->
    <line x1="160" y1="45" x2="200" y2="45" stroke="#000" stroke-width="2" marker-end="url(#arrow)" />
  </g>

  <!-- Best Model Box -->
  <rect x="610" y="215" width="150" height="30" fill="#f0f0f0" stroke="#000" />
  <text x="685" y="228" text-anchor="middle" font-family="Arial" font-size="11">Use Best Model Parameters</text>
  <text x="685" y="240" text-anchor="middle" font-family="Arial" font-size="11">to Test Final Model</text>

  <!-- Arrow up to Holdout -->
  <line x1="685" y1="215" x2="685" y2="130" stroke="#000" stroke-width="2" marker-end="url(#arrow)" />

  <!-- Arrowhead Definition -->
  <defs>
    <marker id="arrow" markerWidth="10" markerHeight="10" refX="9" refY="5" orient="auto">
      <path d="M0,0 L10,5 L0,10 Z" fill="#000" />
    </marker>
  </defs>
</svg>
